<svg width="105" height="22" viewBox="0 0 105 22" fill="none" xmlns="http://www.w3.org/2000/svg">
<path d="M1.13249e-05 17.314V1.91396H6.99601C8.66801 1.91396 10.142 2.23663 11.418 2.88196C12.694 3.51263 13.6913 4.39996 14.41 5.54396C15.1287 6.68796 15.488 8.04463 15.488 9.61396C15.488 11.1686 15.1287 12.5253 14.41 13.684C13.6913 14.828 12.694 15.7226 11.418 16.368C10.142 16.9986 8.66801 17.314 6.99601 17.314H1.13249e-05ZM3.56401 14.388H6.82001C7.84668 14.388 8.73401 14.1973 9.48201 13.816C10.2447 13.42 10.8313 12.8626 11.242 12.144C11.6673 11.4253 11.88 10.582 11.88 9.61396C11.88 8.6313 11.6673 7.78796 11.242 7.08396C10.8313 6.3653 10.2447 5.8153 9.48201 5.43396C8.73401 5.03796 7.84668 4.83996 6.82001 4.83996H3.56401V14.388ZM22.9058 17.49C21.6445 17.49 20.5225 17.226 19.5398 16.698C18.5718 16.17 17.8018 15.4513 17.2298 14.542C16.6725 13.618 16.3938 12.5693 16.3938 11.396C16.3938 10.208 16.6725 9.1593 17.2298 8.24996C17.8018 7.32596 18.5718 6.6073 19.5398 6.09396C20.5225 5.56596 21.6445 5.30196 22.9058 5.30196C24.1525 5.30196 25.2671 5.56596 26.2498 6.09396C27.2325 6.6073 28.0025 7.31863 28.5598 8.22796C29.1171 9.1373 29.3958 10.1933 29.3958 11.396C29.3958 12.5693 29.1171 13.618 28.5598 14.542C28.0025 15.4513 27.2325 16.17 26.2498 16.698C25.2671 17.226 24.1525 17.49 22.9058 17.49ZM22.9058 14.674C23.4778 14.674 23.9911 14.542 24.4458 14.278C24.9005 14.014 25.2598 13.64 25.5238 13.156C25.7878 12.6573 25.9198 12.0706 25.9198 11.396C25.9198 10.7066 25.7878 10.12 25.5238 9.63596C25.2598 9.15196 24.9005 8.77796 24.4458 8.51396C23.9911 8.24996 23.4778 8.11796 22.9058 8.11796C22.3338 8.11796 21.8205 8.24996 21.3658 8.51396C20.9111 8.77796 20.5445 9.15196 20.2658 9.63596C20.0018 10.12 19.8698 10.7066 19.8698 11.396C19.8698 12.0706 20.0018 12.6573 20.2658 13.156C20.5445 13.64 20.9111 14.014 21.3658 14.278C21.8205 14.542 22.3338 14.674 22.9058 14.674ZM30.1498 21.758C29.6218 21.758 29.1158 21.6993 28.6318 21.582C28.1478 21.4793 27.7371 21.318 27.3998 21.098L28.3238 18.612C28.7198 18.8906 29.2038 19.03 29.7758 19.03C30.2011 19.03 30.5385 18.8833 30.7878 18.59C31.0518 18.3113 31.1838 17.886 31.1838 17.314V5.47796H34.6158V17.292C34.6158 18.656 34.2271 19.7413 33.4498 20.548C32.6725 21.3546 31.5725 21.758 30.1498 21.758ZM32.8998 3.82796C32.2691 3.82796 31.7558 3.64463 31.3598 3.27796C30.9638 2.9113 30.7658 2.45663 30.7658 1.91396C30.7658 1.3713 30.9638 0.916631 31.3598 0.549964C31.7558 0.183297 32.2691 -3.6478e-05 32.8998 -3.6478e-05C33.5305 -3.6478e-05 34.0438 0.175964 34.4398 0.527965C34.8358 0.865298 35.0338 1.3053 35.0338 1.84796C35.0338 2.41996 34.8358 2.89663 34.4398 3.27796C34.0585 3.64463 33.5451 3.82796 32.8998 3.82796ZM42.7479 17.49C41.4866 17.49 40.3646 17.226 39.3819 16.698C38.4139 16.17 37.6439 15.4513 37.0719 14.542C36.5146 13.618 36.2359 12.5693 36.2359 11.396C36.2359 10.208 36.5146 9.1593 37.0719 8.24996C37.6439 7.32596 38.4139 6.6073 39.3819 6.09396C40.3646 5.56596 41.4866 5.30196 42.7479 5.30196C43.9946 5.30196 45.1092 5.56596 46.0919 6.09396C47.0746 6.6073 47.8446 7.31863 48.4019 8.22796C48.9592 9.1373 49.2379 10.1933 49.2379 11.396C49.2379 12.5693 48.9592 13.618 48.4019 14.542C47.8446 15.4513 47.0746 16.17 46.0919 16.698C45.1092 17.226 43.9946 17.49 42.7479 17.49ZM42.7479 14.674C43.3199 14.674 43.8332 14.542 44.2879 14.278C44.7426 14.014 45.1019 13.64 45.3659 13.156C45.6299 12.6573 45.7619 12.0706 45.7619 11.396C45.7619 10.7066 45.6299 10.12 45.3659 9.63596C45.1019 9.15196 44.7426 8.77796 44.2879 8.51396C43.8332 8.24996 43.3199 8.11796 42.7479 8.11796C42.1759 8.11796 41.6626 8.24996 41.2079 8.51396C40.7532 8.77796 40.3866 9.15196 40.1079 9.63596C39.8439 10.12 39.7119 10.7066 39.7119 11.396C39.7119 12.0706 39.8439 12.6573 40.1079 13.156C40.3866 13.64 40.7532 14.014 41.2079 14.278C41.6626 14.542 42.1759 14.674 42.7479 14.674ZM61.6739 1.91396H65.2379V17.314H61.6739V1.91396ZM54.6779 17.314H51.1139V1.91396H54.6779V17.314ZM61.9379 11H54.4139V7.98596H61.9379V11ZM72.9735 17.49C71.9908 17.49 71.1108 17.2993 70.3335 16.918C69.5708 16.5366 68.9768 15.9573 68.5515 15.18C68.1262 14.388 67.9135 13.3833 67.9135 12.166V5.47796H71.3455V11.66C71.3455 12.6426 71.5508 13.3686 71.9615 13.838C72.3868 14.2926 72.9808 14.52 73.7435 14.52C74.2715 14.52 74.7408 14.41 75.1515 14.19C75.5622 13.9553 75.8848 13.6033 76.1195 13.134C76.3542 12.65 76.4715 12.0486 76.4715 11.33V5.47796H79.9035V17.314H76.6475V14.058L77.2415 15.004C76.8455 15.8253 76.2588 16.4486 75.4815 16.874C74.7188 17.2846 73.8828 17.49 72.9735 17.49ZM89.617 5.30196C90.5557 5.30196 91.3917 5.49263 92.125 5.87396C92.873 6.24063 93.4597 6.81263 93.885 7.58996C94.3103 8.35263 94.523 9.3353 94.523 10.538V17.314H91.091V11.066C91.091 10.1126 90.8783 9.40863 90.453 8.95396C90.0423 8.4993 89.4557 8.27196 88.693 8.27196C88.1503 8.27196 87.659 8.3893 87.219 8.62396C86.7937 8.84396 86.4563 9.18863 86.207 9.65796C85.9723 10.1273 85.855 10.7286 85.855 11.462V17.314H82.423V5.47796H85.701V8.75596L85.085 7.76596C85.5103 6.97396 86.119 6.3653 86.911 5.93996C87.703 5.51463 88.605 5.30196 89.617 5.30196ZM101.814 17.49C100.421 17.49 99.3353 17.138 98.5579 16.434C97.7806 15.7153 97.3919 14.652 97.3919 13.244V2.85996H100.824V13.2C100.824 13.6986 100.956 14.0873 101.22 14.366C101.484 14.63 101.843 14.762 102.298 14.762C102.841 14.762 103.303 14.6153 103.684 14.322L104.608 16.742C104.256 16.9913 103.831 17.182 103.332 17.314C102.848 17.4313 102.342 17.49 101.814 17.49ZM95.5659 8.38196V5.74196H103.772V8.38196H95.5659Z" fill="#ECECEC"/>
</svg>
